<svg width="46" height="47" viewBox="0 0 46 47" fill="none" xmlns="http://www.w3.org/2000/svg">
<g filter="url(#filter0_dd_44_40)">
<mask id="path-1-inside-1_44_40" fill="white">
<path d="M14.0953 2.82657C14.1965 7.09863 15.271 11.3695 16.6162 14.8671C18.0293 18.541 19.7801 21.3971 20.7762 22.3932L20.9655 22.5824V24.5005H24.2668V22.5824L24.456 22.3932C25.4521 21.3971 27.203 18.541 28.6161 14.8671C29.9613 11.3695 31.0357 7.09863 31.1369 2.82657H14.0953ZM10.4635 7.72797C9.17383 8.16216 8.14568 9.03515 7.76323 9.90735C7.54685 10.4008 7.51348 10.8719 7.69232 11.352C7.71278 11.4069 7.73682 11.4625 7.7638 11.5183C7.96243 11.3949 8.16604 11.2797 8.37412 11.173L8.82461 10.9422L9.15625 11.3245C9.52492 11.7493 9.84594 12.2122 10.1195 12.697C10.3042 12.4774 10.4932 12.1327 10.6255 11.6896C10.9478 10.6107 10.9357 9.0378 10.4635 7.72797ZM34.7688 7.72797C34.2965 9.03773 34.2845 10.6107 34.6067 11.6896C34.739 12.1327 34.9281 12.4774 35.1127 12.697C35.3864 12.2122 35.7073 11.7493 36.076 11.3245L36.4076 10.9422L36.8581 11.173C37.0662 11.2797 37.2698 11.3949 37.4685 11.5183C37.4954 11.4624 37.5194 11.4069 37.5399 11.352C37.7188 10.8719 37.6854 10.4008 37.469 9.90735C37.0866 9.03515 36.0584 8.16216 34.7688 7.72797ZM8.50344 12.5895C7.05007 13.4856 6.05465 14.8484 5.86626 16.0325C5.76241 16.6856 5.87271 17.2686 6.24828 17.794C6.36741 17.9608 6.5169 18.1237 6.7007 18.2792C6.94493 17.8993 7.2195 17.5398 7.52173 17.2043L7.86047 16.8282L8.30666 17.0672C8.87434 17.3712 9.40198 17.7436 9.88125 18.1618C9.95108 17.9011 9.99744 17.5954 10.0085 17.2564C10.0541 15.8614 9.5232 13.9884 8.50352 12.5895H8.50344ZM36.7288 12.5895C35.709 13.9883 35.1781 15.8614 35.2238 17.2564C35.2348 17.5954 35.2812 17.9011 35.351 18.1618C35.8303 17.7436 36.3579 17.3712 36.9256 17.0672L37.3718 16.8282L37.7105 17.2043C38.0128 17.5398 38.2873 17.8993 38.5316 18.2791C38.7153 18.1237 38.8648 17.9608 38.984 17.7939C39.3595 17.2686 39.4698 16.6856 39.366 16.0325C39.1776 14.8484 38.1822 13.4856 36.7288 12.5895ZM8.14769 18.4815C7.11466 19.8312 6.67673 21.4537 6.92735 22.626C7.06571 23.2729 7.37934 23.7799 7.9209 24.1387C8.27572 24.3738 8.7448 24.5478 9.35196 24.6156C9.48749 24.1757 9.65791 23.7473 9.86158 23.3344L10.0859 22.8796L10.5811 22.9897C10.8749 23.0551 11.1647 23.1366 11.449 23.2321C11.4223 22.9566 11.3551 22.6447 11.2391 22.312C10.7786 20.9918 9.60645 19.4281 8.14769 18.4815ZM37.0846 18.4815C35.6258 19.4281 34.4535 20.9918 33.9932 22.312C33.8772 22.6447 33.81 22.9566 33.7832 23.2321C34.0681 23.1361 34.3578 23.0552 34.6511 22.9897L35.1463 22.8796L35.3707 23.3344C35.5743 23.7473 35.7448 24.1757 35.8803 24.6156C36.4875 24.5479 36.9565 24.3738 37.3114 24.1387C37.8529 23.7799 38.1665 23.2729 38.3049 22.626C38.5555 21.4537 38.1176 19.8312 37.0846 18.4815ZM10.8103 24.3948C10.1439 26.0555 10.1624 27.8289 10.7594 28.9549C11.0874 29.5735 11.5565 30.0033 12.214 30.2153C12.5431 30.3215 12.9286 30.3725 13.3756 30.3447C13.2223 29.5442 13.1767 28.6962 13.2495 27.8373L13.2927 27.3296L13.7966 27.2532C14.1166 27.2049 14.439 27.1735 14.7624 27.159C14.8022 27.1572 14.8419 27.1562 14.8815 27.1548C13.9903 26.0226 12.4498 24.8991 10.8103 24.3948ZM34.422 24.3948C32.7824 24.8991 31.2419 26.0225 30.3506 27.1548C30.3904 27.1562 30.4301 27.1572 30.4698 27.159C30.7927 27.1738 31.1153 27.2047 31.4358 27.2532L31.9396 27.3296L31.9826 27.8373C32.0556 28.6961 32.0099 29.5442 31.8567 30.3447C32.3037 30.3724 32.6892 30.3215 33.0183 30.2153C33.6758 30.0033 34.1449 29.5735 34.4729 28.9549C35.0698 27.8288 35.0883 26.0554 34.422 24.3948ZM18.5777 25.7923C18.4382 26.3222 18.1438 26.8002 17.762 27.182C17.6824 27.2609 17.5989 27.3357 17.5119 27.4063C18.5744 27.6427 19.5687 28.0301 20.4116 28.5158C20.5827 28.1311 20.7975 27.7734 21.0868 27.4727C21.465 27.08 22.0068 26.7971 22.6161 26.7971C23.2254 26.7971 23.7674 27.08 24.1454 27.4727C24.4348 27.7734 24.6495 28.1312 24.8206 28.5157C25.6686 28.0271 26.6698 27.638 27.7394 27.4019C27.6457 27.325 27.5562 27.2433 27.4711 27.1569C27.096 26.7742 26.8058 26.3063 26.6629 25.7923H18.5777ZM22.6161 28.0889C22.3697 28.0889 22.2117 28.1667 22.0176 28.3685C21.8235 28.5702 21.6304 28.9082 21.4774 29.3228C21.1713 30.1522 21.0222 31.2606 20.9638 32.082C20.887 33.1616 21.1791 34.4768 21.8455 34.9571C22.1852 35.2019 23.0471 35.2019 23.3868 34.9571C24.0531 34.4768 24.3452 33.1616 24.2684 32.082C24.2101 31.2606 24.061 30.1522 23.7549 29.3228C23.6019 28.9082 23.4087 28.5701 23.2147 28.3685C23.0205 28.1668 22.8626 28.0889 22.6161 28.0889ZM15.1866 28.4463C15.0636 28.4457 14.9409 28.4478 14.8187 28.4527C14.7178 28.4567 14.6199 28.4729 14.5198 28.4807C14.4898 30.4771 15.2243 32.3234 16.3136 33.2636C16.9067 33.7756 17.5757 34.0367 18.3482 33.9926C18.7722 33.9683 19.2377 33.8469 19.7387 33.5964C19.6475 33.0463 19.6398 32.4897 19.6753 31.9903C19.7206 31.3523 19.8082 30.5577 19.9967 29.7743C18.7652 29.0074 16.9519 28.4541 15.1866 28.4462V28.4463ZM30.0456 28.4463C28.2803 28.4541 26.4671 29.0075 25.2355 29.7743C25.4241 30.5577 25.5116 31.3523 25.557 31.9903C25.5924 32.4897 25.5847 33.0463 25.4936 33.5965C25.9945 33.8469 26.46 33.9683 26.8841 33.9926C27.6565 34.0367 28.3256 33.7756 28.9187 33.2637C30.0079 32.3234 30.7424 30.4771 30.7124 28.4807C30.6125 28.4729 30.5143 28.4567 30.4136 28.4527C30.291 28.4478 30.1683 28.4457 30.0456 28.4463Z"/>
</mask>
<path d="M14.0953 2.82657C14.1965 7.09863 15.271 11.3695 16.6162 14.8671C18.0293 18.541 19.7801 21.3971 20.7762 22.3932L20.9655 22.5824V24.5005H24.2668V22.5824L24.456 22.3932C25.4521 21.3971 27.203 18.541 28.6161 14.8671C29.9613 11.3695 31.0357 7.09863 31.1369 2.82657H14.0953ZM10.4635 7.72797C9.17383 8.16216 8.14568 9.03515 7.76323 9.90735C7.54685 10.4008 7.51348 10.8719 7.69232 11.352C7.71278 11.4069 7.73682 11.4625 7.7638 11.5183C7.96243 11.3949 8.16604 11.2797 8.37412 11.173L8.82461 10.9422L9.15625 11.3245C9.52492 11.7493 9.84594 12.2122 10.1195 12.697C10.3042 12.4774 10.4932 12.1327 10.6255 11.6896C10.9478 10.6107 10.9357 9.0378 10.4635 7.72797ZM34.7688 7.72797C34.2965 9.03773 34.2845 10.6107 34.6067 11.6896C34.739 12.1327 34.9281 12.4774 35.1127 12.697C35.3864 12.2122 35.7073 11.7493 36.076 11.3245L36.4076 10.9422L36.8581 11.173C37.0662 11.2797 37.2698 11.3949 37.4685 11.5183C37.4954 11.4624 37.5194 11.4069 37.5399 11.352C37.7188 10.8719 37.6854 10.4008 37.469 9.90735C37.0866 9.03515 36.0584 8.16216 34.7688 7.72797ZM8.50344 12.5895C7.05007 13.4856 6.05465 14.8484 5.86626 16.0325C5.76241 16.6856 5.87271 17.2686 6.24828 17.794C6.36741 17.9608 6.5169 18.1237 6.7007 18.2792C6.94493 17.8993 7.2195 17.5398 7.52173 17.2043L7.86047 16.8282L8.30666 17.0672C8.87434 17.3712 9.40198 17.7436 9.88125 18.1618C9.95108 17.9011 9.99744 17.5954 10.0085 17.2564C10.0541 15.8614 9.5232 13.9884 8.50352 12.5895H8.50344ZM36.7288 12.5895C35.709 13.9883 35.1781 15.8614 35.2238 17.2564C35.2348 17.5954 35.2812 17.9011 35.351 18.1618C35.8303 17.7436 36.3579 17.3712 36.9256 17.0672L37.3718 16.8282L37.7105 17.2043C38.0128 17.5398 38.2873 17.8993 38.5316 18.2791C38.7153 18.1237 38.8648 17.9608 38.984 17.7939C39.3595 17.2686 39.4698 16.6856 39.366 16.0325C39.1776 14.8484 38.1822 13.4856 36.7288 12.5895ZM8.14769 18.4815C7.11466 19.8312 6.67673 21.4537 6.92735 22.626C7.06571 23.2729 7.37934 23.7799 7.9209 24.1387C8.27572 24.3738 8.7448 24.5478 9.35196 24.6156C9.48749 24.1757 9.65791 23.7473 9.86158 23.3344L10.0859 22.8796L10.5811 22.9897C10.8749 23.0551 11.1647 23.1366 11.449 23.2321C11.4223 22.9566 11.3551 22.6447 11.2391 22.312C10.7786 20.9918 9.60645 19.4281 8.14769 18.4815ZM37.0846 18.4815C35.6258 19.4281 34.4535 20.9918 33.9932 22.312C33.8772 22.6447 33.81 22.9566 33.7832 23.2321C34.0681 23.1361 34.3578 23.0552 34.6511 22.9897L35.1463 22.8796L35.3707 23.3344C35.5743 23.7473 35.7448 24.1757 35.8803 24.6156C36.4875 24.5479 36.9565 24.3738 37.3114 24.1387C37.8529 23.7799 38.1665 23.2729 38.3049 22.626C38.5555 21.4537 38.1176 19.8312 37.0846 18.4815ZM10.8103 24.3948C10.1439 26.0555 10.1624 27.8289 10.7594 28.9549C11.0874 29.5735 11.5565 30.0033 12.214 30.2153C12.5431 30.3215 12.9286 30.3725 13.3756 30.3447C13.2223 29.5442 13.1767 28.6962 13.2495 27.8373L13.2927 27.3296L13.7966 27.2532C14.1166 27.2049 14.439 27.1735 14.7624 27.159C14.8022 27.1572 14.8419 27.1562 14.8815 27.1548C13.9903 26.0226 12.4498 24.8991 10.8103 24.3948ZM34.422 24.3948C32.7824 24.8991 31.2419 26.0225 30.3506 27.1548C30.3904 27.1562 30.4301 27.1572 30.4698 27.159C30.7927 27.1738 31.1153 27.2047 31.4358 27.2532L31.9396 27.3296L31.9826 27.8373C32.0556 28.6961 32.0099 29.5442 31.8567 30.3447C32.3037 30.3724 32.6892 30.3215 33.0183 30.2153C33.6758 30.0033 34.1449 29.5735 34.4729 28.9549C35.0698 27.8288 35.0883 26.0554 34.422 24.3948ZM18.5777 25.7923C18.4382 26.3222 18.1438 26.8002 17.762 27.182C17.6824 27.2609 17.5989 27.3357 17.5119 27.4063C18.5744 27.6427 19.5687 28.0301 20.4116 28.5158C20.5827 28.1311 20.7975 27.7734 21.0868 27.4727C21.465 27.08 22.0068 26.7971 22.6161 26.7971C23.2254 26.7971 23.7674 27.08 24.1454 27.4727C24.4348 27.7734 24.6495 28.1312 24.8206 28.5157C25.6686 28.0271 26.6698 27.638 27.7394 27.4019C27.6457 27.325 27.5562 27.2433 27.4711 27.1569C27.096 26.7742 26.8058 26.3063 26.6629 25.7923H18.5777ZM22.6161 28.0889C22.3697 28.0889 22.2117 28.1667 22.0176 28.3685C21.8235 28.5702 21.6304 28.9082 21.4774 29.3228C21.1713 30.1522 21.0222 31.2606 20.9638 32.082C20.887 33.1616 21.1791 34.4768 21.8455 34.9571C22.1852 35.2019 23.0471 35.2019 23.3868 34.9571C24.0531 34.4768 24.3452 33.1616 24.2684 32.082C24.2101 31.2606 24.061 30.1522 23.7549 29.3228C23.6019 28.9082 23.4087 28.5701 23.2147 28.3685C23.0205 28.1668 22.8626 28.0889 22.6161 28.0889ZM15.1866 28.4463C15.0636 28.4457 14.9409 28.4478 14.8187 28.4527C14.7178 28.4567 14.6199 28.4729 14.5198 28.4807C14.4898 30.4771 15.2243 32.3234 16.3136 33.2636C16.9067 33.7756 17.5757 34.0367 18.3482 33.9926C18.7722 33.9683 19.2377 33.8469 19.7387 33.5964C19.6475 33.0463 19.6398 32.4897 19.6753 31.9903C19.7206 31.3523 19.8082 30.5577 19.9967 29.7743C18.7652 29.0074 16.9519 28.4541 15.1866 28.4462V28.4463ZM30.0456 28.4463C28.2803 28.4541 26.4671 29.0075 25.2355 29.7743C25.4241 30.5577 25.5116 31.3523 25.557 31.9903C25.5924 32.4897 25.5847 33.0463 25.4936 33.5965C25.9945 33.8469 26.46 33.9683 26.8841 33.9926C27.6565 34.0367 28.3256 33.7756 28.9187 33.2637C30.0079 32.3234 30.7424 30.4771 30.7124 28.4807C30.6125 28.4729 30.5143 28.4567 30.4136 28.4527C30.291 28.4478 30.1683 28.4457 30.0456 28.4463Z" fill="#A52334" stroke="#FFAAB5" stroke-opacity="0.31" stroke-width="2" mask="url(#path-1-inside-1_44_40)"/>
</g>
<defs>
<filter id="filter0_dd_44_40" x="-1.88437" y="0" width="48.4035" height="48.6045" filterUnits="userSpaceOnUse" color-interpolation-filters="sRGB">
<feFlood flood-opacity="0" result="BackgroundImageFix"/>
<feColorMatrix in="SourceAlpha" type="matrix" values="0 0 0 0 0 0 0 0 0 0 0 0 0 0 0 0 0 0 127 0" result="hardAlpha"/>
<feOffset dy="6"/>
<feGaussianBlur stdDeviation="2.9"/>
<feComposite in2="hardAlpha" operator="out"/>
<feColorMatrix type="matrix" values="0 0 0 0 1 0 0 0 0 0.983654 0 0 0 0 0.983654 0 0 0 0.74 0"/>
<feBlend mode="normal" in2="BackgroundImageFix" result="effect1_dropShadow_44_40"/>
<feColorMatrix in="SourceAlpha" type="matrix" values="0 0 0 0 0 0 0 0 0 0 0 0 0 0 0 0 0 0 127 0" result="hardAlpha"/>
<feOffset dy="4"/>
<feGaussianBlur stdDeviation="2"/>
<feComposite in2="hardAlpha" operator="out"/>
<feColorMatrix type="matrix" values="0 0 0 0 0 0 0 0 0 0 0 0 0 0 0 0 0 0 0.25 0"/>
<feBlend mode="normal" in2="effect1_dropShadow_44_40" result="effect2_dropShadow_44_40"/>
<feBlend mode="normal" in="SourceGraphic" in2="effect2_dropShadow_44_40" result="shape"/>
</filter>
</defs>
</svg>
