<svg width="35" height="35" viewBox="0 0 35 35" fill="none" xmlns="http://www.w3.org/2000/svg">
<path d="M33.5416 7.29166V21.875H32.0833V20.4167H30.6249V18.9583H29.1666V17.5H26.2499V18.9583H24.7916V20.4167H23.3333V21.875H21.8749V23.3333H20.4166V24.7917H18.9583V26.25H17.4999V27.7083H14.5833V26.25H13.1249V24.7917H11.6666V23.3333H10.2083V21.875H7.29158V23.3333H5.83325V24.7917H1.45825V20.4167H2.91659V18.9583H4.37492V17.5H5.83325V16.0417H7.29158V14.5833H10.2083V16.0417H11.6666V17.5H13.1249V18.9583H14.5833V20.4167H17.4999V18.9583H18.9583V17.5H20.4166V16.0417H21.8749V14.5833H23.3333V11.6667H21.8749V10.2083H20.4166V8.75H18.9583V7.29166H33.5416Z" fill="#A52334" fill-opacity="0.68"/>
<path d="M33.0413 7.79166V21.3747H32.5833V19.9167H31.1252V18.4587H29.6663V16.9997H25.7502V18.4587H24.2913V19.9167H22.8333V21.3747H21.3752V22.8337H19.9163V24.2917H18.4583V25.7497H17.0002V27.2087H15.0833V25.7497H13.6252V24.2917H12.1663V22.8337H10.7083V21.3747H6.79126V22.8337H5.33325V24.2917H1.95825V20.9167H3.41626V19.4587H4.87524V17.9997H6.33325V16.5417H7.79126V15.0837H9.70825V16.5417H11.1663V17.9997H12.6252V19.4587H14.0833V20.9167H18.0002V19.4587H19.4583V17.9997H20.9163V16.5417H22.3752V15.0837H23.8333V11.1667H22.3752V9.70866H20.9163V8.24967H19.4583V7.79166H33.0413Z" stroke="#A52334" stroke-opacity="0.68"/>
</svg>
