<svg width="25" height="25" viewBox="0 0 25 25" fill="none" xmlns="http://www.w3.org/2000/svg">
<path d="M6.25 2.08333H14.5833V4.16666H6.25V2.08333ZM4.16667 6.25V4.16666H6.25V6.25H4.16667ZM4.16667 14.5833H2.08333V6.25H4.16667V14.5833ZM6.25 16.6667H4.16667V14.5833H6.25V16.6667ZM14.5833 16.6667V18.75H6.25V16.6667H14.5833ZM16.6667 14.5833H14.5833V16.6667H16.6667V18.75H18.75V20.8333H20.8333V22.9166H22.9167V20.8333H20.8333V18.75H18.75V16.6667H16.6667V14.5833ZM16.6667 6.25H18.75V14.5833H16.6667V6.25ZM16.6667 6.25V4.16666H14.5833V6.25H16.6667Z" fill="#A52334" fill-opacity="0.68"/>
</svg>
