<svg width="41" height="46" viewBox="0 0 41 46" fill="none" xmlns="http://www.w3.org/2000/svg">
<g filter="url(#filter0_dd_44_43)">
<path fill-rule="evenodd" clip-rule="evenodd" d="M13.997 11.3288C13.997 9.61193 14.6791 7.96534 15.8931 6.7513C17.1071 5.53727 18.7537 4.85523 20.4706 4.85523C22.1875 4.85523 23.8341 5.53727 25.0482 6.7513C26.2622 7.96534 26.9442 9.61193 26.9442 11.3288C26.9442 13.0457 26.2622 14.6923 25.0482 15.9064C23.8341 17.1204 22.1875 17.8024 20.4706 17.8024C18.7537 17.8024 17.1071 17.1204 15.8931 15.9064C14.6791 14.6923 13.997 13.0457 13.997 11.3288ZM13.997 21.0392C11.8509 21.0392 9.79266 21.8918 8.27511 23.4093C6.75756 24.9269 5.90502 26.9851 5.90502 29.1313C5.90502 30.4189 6.41654 31.6539 7.32707 32.5644C8.2376 33.4749 9.47254 33.9865 10.7602 33.9865H30.181C31.4687 33.9865 32.7037 33.4749 33.6142 32.5644C34.5247 31.6539 35.0363 30.4189 35.0363 29.1313C35.0363 26.9851 34.1837 24.9269 32.6662 23.4093C31.1486 21.8918 29.0904 21.0392 26.9442 21.0392H13.997Z" fill="#A52334"/>
<path d="M13.9971 21.5484H26.944C28.9552 21.5484 30.8839 22.3475 32.306 23.7696C33.728 25.1916 34.5271 27.1204 34.5271 29.1315C34.527 30.2841 34.0695 31.3897 33.2545 32.2047C32.4394 33.0197 31.3339 33.4772 30.1813 33.4773H10.7599C9.60732 33.4772 8.50167 33.0196 7.68669 32.2047C6.87172 31.3897 6.41412 30.284 6.41406 29.1315C6.41406 27.1204 7.21315 25.1916 8.63519 23.7696C10.0573 22.3475 11.986 21.5484 13.9971 21.5484ZM20.4706 5.36428C22.0524 5.36428 23.5696 5.99264 24.6881 7.11115C25.8067 8.22969 26.435 9.74685 26.435 11.3287C26.435 12.9106 25.8067 14.4277 24.6881 15.5462C23.5695 16.6648 22.0525 17.2931 20.4706 17.2931C18.8887 17.2931 17.3716 16.6648 16.253 15.5462C15.1345 14.4277 14.5061 12.9105 14.5061 11.3287C14.5062 9.74685 15.1345 8.22969 16.253 7.11115C17.3716 5.99261 18.8887 5.36429 20.4706 5.36428Z" stroke="#FFAAB5" stroke-opacity="0.5"/>
</g>
<defs>
<filter id="filter0_dd_44_43" x="-4.85505" y="0" width="50.6515" height="50.8552" filterUnits="userSpaceOnUse" color-interpolation-filters="sRGB">
<feFlood flood-opacity="0" result="BackgroundImageFix"/>
<feColorMatrix in="SourceAlpha" type="matrix" values="0 0 0 0 0 0 0 0 0 0 0 0 0 0 0 0 0 0 127 0" result="hardAlpha"/>
<feOffset dy="6"/>
<feGaussianBlur stdDeviation="2.9"/>
<feComposite in2="hardAlpha" operator="out"/>
<feColorMatrix type="matrix" values="0 0 0 0 1 0 0 0 0 0.983654 0 0 0 0 0.983654 0 0 0 0.74 0"/>
<feBlend mode="normal" in2="BackgroundImageFix" result="effect1_dropShadow_44_43"/>
<feColorMatrix in="SourceAlpha" type="matrix" values="0 0 0 0 0 0 0 0 0 0 0 0 0 0 0 0 0 0 127 0" result="hardAlpha"/>
<feOffset dy="4"/>
<feGaussianBlur stdDeviation="2"/>
<feComposite in2="hardAlpha" operator="out"/>
<feColorMatrix type="matrix" values="0 0 0 0 0 0 0 0 0 0 0 0 0 0 0 0 0 0 0.25 0"/>
<feBlend mode="normal" in2="effect1_dropShadow_44_43" result="effect2_dropShadow_44_43"/>
<feBlend mode="normal" in="SourceGraphic" in2="effect2_dropShadow_44_43" result="shape"/>
</filter>
</defs>
</svg>
